<svg width="20" height="20" viewBox="0 0 20 20" fill="none" xmlns="http://www.w3.org/2000/svg">
<path id="calendar52" d="M19.5435 3.28015C19.4043 3.14532 19.237 3.03822 19.0518 2.96536C18.8666 2.89251 18.6674 2.85544 18.4663 2.85641H16.9231V1.78517C16.9267 1.55023 16.8783 1.31711 16.781 1.10019C16.6838 0.88327 16.5397 0.687151 16.3576 0.52393C16.1817 0.355141 15.9703 0.221592 15.7367 0.131516C15.503 0.0414393 15.2519 -0.00325616 14.999 0.000184582H14.2301C13.977 -0.00309463 13.7259 0.0417972 13.4922 0.132091C13.2585 0.222384 13.0473 0.356165 12.8714 0.52518C12.6893 0.688356 12.5452 0.884467 12.4479 1.1014C12.3506 1.31833 12.3023 1.55147 12.3059 1.78642V2.85766H7.68868V1.78517C7.69221 1.55023 7.64385 1.31711 7.54658 1.10019C7.44932 0.88327 7.3052 0.687151 7.12313 0.52393C6.94735 0.355296 6.73625 0.221837 6.50283 0.131765C6.26941 0.0416939 6.0186 -0.00308484 5.76584 0.000184582H4.99697C4.74389 -0.00309463 4.49277 0.0417972 4.25909 0.132091C4.02542 0.222384 3.81415 0.356165 3.63833 0.52518C3.45626 0.688401 3.31215 0.88452 3.21488 1.10144C3.11762 1.31836 3.06926 1.55148 3.07279 1.78642V2.85766H1.53371C1.33257 2.85669 1.13333 2.89376 0.948125 2.96661C0.762923 3.03947 0.595645 3.14657 0.456493 3.2814C0.31125 3.41058 0.19587 3.56586 0.117391 3.73779C0.0389115 3.90971 -0.00102361 4.09467 1.99361e-05 4.2814V18.57C0.00521209 18.9467 0.168258 19.3067 0.454577 19.5736C0.740895 19.8406 1.12797 19.9935 1.53371 20H18.4609C18.8673 19.9948 19.2556 19.8426 19.543 19.5758C19.8304 19.309 19.9944 18.9486 19.9999 18.5713V4.28515C20.0017 4.09758 19.9621 3.91167 19.8836 3.73884C19.8051 3.566 19.6894 3.40991 19.5435 3.28015ZM5.00101 18.57H1.53371V15.3563H4.99563L5.00101 18.57ZM5.00101 14.6413H1.53371V11.0701H4.99563L5.00101 14.6413ZM5.00101 10.3551H1.53371V7.14137H4.99563L5.00101 10.3551ZM4.73171 5.24889C4.69527 5.21666 4.66632 5.17786 4.64664 5.13487C4.62696 5.09188 4.61696 5.0456 4.61725 4.99889V1.78517C4.61865 1.69076 4.65967 1.60058 4.73159 1.53381C4.80351 1.46704 4.90065 1.42897 5.00236 1.42767H5.76584C5.86754 1.42897 5.96469 1.46704 6.03661 1.53381C6.10853 1.60058 6.14955 1.69076 6.15094 1.78517V5.00014C6.14955 5.09455 6.10853 5.18473 6.03661 5.2515C5.96469 5.31826 5.86754 5.35634 5.76584 5.35764H4.99697C4.94611 5.35802 4.89571 5.34867 4.84892 5.33018C4.80212 5.31168 4.75993 5.28443 4.72498 5.25014L4.73171 5.24889ZM9.61824 18.5688H5.76584V15.3563H9.61285L9.61824 18.5688ZM9.61824 14.6401H5.76584V11.0701H9.61285L9.61824 14.6401ZM9.61824 10.3538H5.76584V7.14137H9.61285L9.61824 10.3538ZM14.2355 18.5675H10.3817V15.3563H14.2287L14.2355 18.5675ZM14.2355 14.6388H10.3817V11.0701H14.2287L14.2355 14.6388ZM14.2355 10.3526H10.3817V7.14137H14.2287L14.2355 10.3526ZM13.9662 5.24639C13.9291 5.21509 13.8992 5.17713 13.8784 5.1348C13.8575 5.09248 13.8462 5.04666 13.845 5.00014V1.78517C13.846 1.69066 13.8869 1.60029 13.9589 1.53346C14.0309 1.46663 14.1283 1.42865 14.2301 1.42767H14.999C15.1008 1.42865 15.1981 1.46663 15.2701 1.53346C15.3421 1.60029 15.383 1.69066 15.3841 1.78517V5.00014C15.383 5.09465 15.3421 5.18502 15.2701 5.25185C15.1981 5.31868 15.1008 5.35666 14.999 5.35764H14.2301C14.1792 5.35809 14.1288 5.34878 14.082 5.33028C14.0352 5.31178 13.993 5.28449 13.9581 5.25014L13.9662 5.24639ZM18.4689 18.5663H14.999V15.3563H18.4609L18.4689 18.5663ZM18.4689 14.6376H14.999V11.0701H18.4609L18.4689 14.6376ZM18.4689 10.3513H14.999V7.14137H18.4609L18.4689 10.3513Z" fill="#333333"/>
</svg>
