<svg width="83" height="17" viewBox="0 0 83 17" fill="none" xmlns="http://www.w3.org/2000/svg">
<path d="M7.40944 16.788C5.96944 16.788 4.70544 16.484 3.61744 15.876C2.52944 15.268 1.68944 14.412 1.09744 13.308C0.521438 12.188 0.233438 10.876 0.233438 9.372C0.233438 7.772 0.593438 6.332 1.31344 5.052C2.03344 3.756 3.02544 2.748 4.28944 2.028C5.56944 1.292 7.00944 0.923999 8.60944 0.923999C9.20144 0.923999 9.80144 0.971999 10.4094 1.068C11.0334 1.148 11.5534 1.236 11.9694 1.332C12.4014 1.412 12.6734 1.468 12.7854 1.5L12.8814 1.644C12.8494 1.74 12.7934 1.972 12.7134 2.34C12.6494 2.708 12.5694 3.188 12.4734 3.78C12.3934 4.372 12.3294 4.996 12.2814 5.652L11.1294 5.748C11.1454 5.668 11.1614 5.524 11.1774 5.316C11.1934 5.092 11.2014 4.844 11.2014 4.572C11.2014 3.084 10.0254 2.34 7.67344 2.34C6.61744 2.34 5.68944 2.596 4.88944 3.108C4.08944 3.62 3.47344 4.348 3.04144 5.292C2.60944 6.22 2.39344 7.316 2.39344 8.58C2.39344 9.972 2.61744 11.196 3.06544 12.252C3.52944 13.308 4.17744 14.132 5.00944 14.724C5.84144 15.3 6.80144 15.588 7.88944 15.588C8.97744 15.588 9.84944 15.284 10.5054 14.676C11.1774 14.052 11.6654 13.092 11.9694 11.796L13.1214 11.7C13.0734 11.94 12.9694 12.476 12.8094 13.308C12.6494 14.124 12.5374 14.892 12.4734 15.612L12.3294 15.828C12.3294 15.844 12.0814 15.94 11.5854 16.116C11.1054 16.276 10.4974 16.428 9.76144 16.572C9.04144 16.716 8.25744 16.788 7.40944 16.788ZM26.5849 16.884C26.1849 16.884 25.7529 16.684 25.2889 16.284C24.8409 15.868 24.4249 15.308 24.0409 14.604L21.4729 9.948H19.4809L19.4089 13.524C19.4089 14.132 19.4489 14.572 19.5289 14.844C19.6089 15.1 19.7609 15.276 19.9849 15.372C20.2089 15.452 20.5929 15.492 21.1369 15.492L21.1849 15.588L20.9689 16.596C20.7769 16.58 20.3929 16.564 19.8169 16.548C19.2409 16.532 18.6409 16.524 18.0169 16.524C17.4569 16.524 16.9609 16.532 16.5289 16.548C16.0969 16.564 15.8089 16.58 15.6649 16.596L15.8809 15.516C16.3929 15.452 16.7769 15.364 17.0329 15.252C17.2889 15.14 17.4649 14.964 17.5609 14.724C17.6569 14.468 17.7049 14.1 17.7049 13.62L17.7289 3.54C17.7289 3.028 17.6649 2.684 17.5369 2.508C17.4249 2.332 17.1929 2.244 16.8409 2.244C16.6809 2.244 16.5209 2.252 16.3609 2.268C16.2009 2.284 16.0889 2.292 16.0249 2.292L15.9769 2.196L16.1449 1.14C16.3369 1.156 16.6969 1.172 17.2249 1.188C17.7529 1.204 18.2809 1.212 18.8089 1.212C19.3529 1.212 19.9209 1.204 20.5129 1.188C21.1209 1.156 21.5369 1.132 21.7609 1.116C23.2489 1.116 24.4249 1.452 25.2889 2.124C26.1529 2.796 26.5849 3.716 26.5849 4.884C26.5849 5.844 26.2729 6.724 25.6489 7.524C25.0409 8.324 24.1769 8.98 23.0569 9.492L25.6969 13.668C26.1609 14.436 26.6089 14.972 27.0409 15.276C27.4889 15.564 28.0329 15.708 28.6729 15.708L28.7689 15.804L28.6249 16.62L26.5849 16.884ZM22.0009 8.844C22.0009 8.892 22.2409 8.788 22.7209 8.532C23.2009 8.276 23.6329 7.884 24.0169 7.356C24.4009 6.828 24.5929 6.148 24.5929 5.316C24.5929 3.204 23.1289 2.148 20.2009 2.148C20.0409 2.148 19.9289 2.188 19.8649 2.268C19.8169 2.332 19.7849 2.476 19.7689 2.7C19.6249 5.148 19.5449 7.116 19.5289 8.604L22.0009 8.844ZM41.7368 12.492C41.4648 13.788 41.2488 15.132 41.0887 16.524L40.9688 16.668C37.6088 16.556 35.1848 16.5 33.6968 16.5C32.5128 16.5 31.4008 16.58 30.3608 16.74L30.5048 15.636C31.2248 15.54 31.7128 15.356 31.9688 15.084C32.2408 14.796 32.3768 14.308 32.3768 13.62L32.4008 3.54C32.4008 3.028 32.3368 2.684 32.2088 2.508C32.0968 2.332 31.8648 2.244 31.5128 2.244L30.6968 2.292L30.6488 2.196L30.8168 1.14C32.4488 1.188 33.5608 1.212 34.1528 1.212C36.0568 1.212 37.5368 1.196 38.5928 1.164C39.6488 1.116 40.5688 1.036 41.3528 0.923999L41.4248 1.068C41.1368 2.332 40.9528 3.66 40.8728 5.052L39.7208 5.148L39.7688 4.116C39.7688 3.556 39.6968 3.172 39.5528 2.964C39.4088 2.74 39.0968 2.596 38.6168 2.532C38.1368 2.452 37.2968 2.412 36.0968 2.412C35.5368 2.412 35.1528 2.428 34.9448 2.46C34.7368 2.492 34.6008 2.572 34.5368 2.7C34.4728 2.812 34.4328 3.028 34.4168 3.348L34.2248 8.004L36.6968 8.028C37.3208 8.028 38.2968 7.94 39.6248 7.764L39.7208 7.884L39.3848 9.3C37.6088 9.252 36.4888 9.228 36.0247 9.228C35.4968 9.228 34.8808 9.284 34.1768 9.396L34.0808 13.98C34.0808 14.444 34.1208 14.772 34.2008 14.964C34.2808 15.14 34.4408 15.26 34.6808 15.324C34.9368 15.388 35.3688 15.42 35.9768 15.42C37.3208 15.42 38.2728 15.356 38.8328 15.228C39.4088 15.1 39.8168 14.844 40.0568 14.46C40.2968 14.076 40.4808 13.42 40.6088 12.492L41.6648 12.372L41.7368 12.492ZM51.0444 16.572L51.1404 15.636C51.9564 15.572 52.5164 15.476 52.8204 15.348C53.1244 15.22 53.2764 15.012 53.2764 14.724C53.2764 14.404 53.2044 14.02 53.0604 13.572L52.2684 10.956C51.8844 10.94 51.0524 10.932 49.7724 10.932C49.0044 10.932 48.1324 10.996 47.1564 11.124L46.2684 13.62C46.1244 14.052 46.0524 14.364 46.0524 14.556C46.0524 14.908 46.1644 15.164 46.3884 15.324C46.6124 15.468 46.9804 15.54 47.4924 15.54H48.8604L48.9084 15.636L48.7644 16.668C48.5724 16.652 48.1324 16.62 47.4444 16.572C46.7564 16.524 46.0844 16.5 45.4284 16.5C44.8364 16.5 44.2844 16.508 43.7724 16.524C43.2764 16.54 42.9484 16.556 42.7884 16.572L42.9804 15.444C43.4284 15.396 43.7884 15.244 44.0604 14.988C44.3324 14.716 44.5964 14.252 44.8524 13.596L49.5324 1.332L51.0444 0.923999H51.2364C51.3324 1.308 51.5724 2.196 51.9564 3.588C52.3564 4.98 52.8364 6.628 53.3964 8.532C53.9724 10.436 54.5244 12.188 55.0524 13.788C55.2444 14.38 55.5004 14.796 55.8204 15.036C56.1404 15.276 56.6524 15.428 57.3564 15.492L57.4044 15.588L57.2364 16.572C57.0444 16.572 56.6924 16.556 56.1804 16.524C55.6844 16.508 55.1884 16.5 54.6924 16.5C53.9244 16.5 53.1804 16.532 52.4604 16.596C51.7564 16.66 51.3084 16.708 51.1164 16.74L51.0444 16.572ZM49.7004 9.948C50.2764 9.948 51.0204 9.908 51.9324 9.828L50.0364 3.54H49.8684L47.5884 9.948H49.7004ZM59.7467 15.564C60.5467 15.5 61.0987 15.404 61.4027 15.276C61.7067 15.132 61.9067 14.884 62.0027 14.532C62.0987 14.164 62.1467 13.524 62.1467 12.612V2.148C60.7867 2.196 59.8587 2.276 59.3627 2.388C58.8827 2.484 58.5547 2.716 58.3787 3.084C58.2027 3.436 58.0427 4.132 57.8987 5.172L56.7707 5.268C56.9627 3.748 57.0827 2.364 57.1307 1.116L57.3467 0.923999L59.3387 1.188H66.7787L68.8187 0.923999L69.0347 1.116C69.0827 2.428 69.2027 3.78 69.3947 5.172L68.2667 5.268C68.0907 4.212 67.9147 3.5 67.7387 3.132C67.5627 2.764 67.2507 2.524 66.8027 2.412C66.3547 2.3 65.4907 2.212 64.2107 2.148C64.1147 3.108 64.0267 4.804 63.9467 7.236C63.8667 9.668 63.8267 11.86 63.8267 13.812C63.8267 14.404 63.9307 14.828 64.1387 15.084C64.3467 15.324 64.6987 15.444 65.1947 15.444C65.6747 15.444 66.1147 15.42 66.5147 15.372L66.5867 15.468L66.3707 16.572L65.5787 16.548L62.8427 16.5C61.9627 16.5 60.8667 16.532 59.5547 16.596L59.7467 15.564ZM82.4243 12.492C82.1523 13.788 81.9363 15.132 81.7762 16.524L81.6562 16.668C78.2963 16.556 75.8723 16.5 74.3843 16.5C73.2003 16.5 72.0883 16.58 71.0483 16.74L71.1923 15.636C71.9123 15.54 72.4003 15.356 72.6562 15.084C72.9283 14.796 73.0643 14.308 73.0643 13.62L73.0883 3.54C73.0883 3.028 73.0243 2.684 72.8963 2.508C72.7843 2.332 72.5523 2.244 72.2003 2.244L71.3843 2.292L71.3363 2.196L71.5043 1.14C73.1363 1.188 74.2483 1.212 74.8403 1.212C76.7443 1.212 78.2243 1.196 79.2803 1.164C80.3363 1.116 81.2563 1.036 82.0403 0.923999L82.1123 1.068C81.8243 2.332 81.6403 3.66 81.5603 5.052L80.4083 5.148L80.4563 4.116C80.4563 3.556 80.3843 3.172 80.2403 2.964C80.0963 2.74 79.7843 2.596 79.3043 2.532C78.8243 2.452 77.9843 2.412 76.7843 2.412C76.2243 2.412 75.8403 2.428 75.6323 2.46C75.4243 2.492 75.2883 2.572 75.2243 2.7C75.1603 2.812 75.1203 3.028 75.1043 3.348L74.9123 8.004L77.3843 8.028C78.0083 8.028 78.9843 7.94 80.3123 7.764L80.4083 7.884L80.0723 9.3C78.2963 9.252 77.1763 9.228 76.7122 9.228C76.1843 9.228 75.5683 9.284 74.8643 9.396L74.7683 13.98C74.7683 14.444 74.8083 14.772 74.8883 14.964C74.9683 15.14 75.1283 15.26 75.3683 15.324C75.6243 15.388 76.0563 15.42 76.6643 15.42C78.0083 15.42 78.9603 15.356 79.5203 15.228C80.0963 15.1 80.5043 14.844 80.7443 14.46C80.9843 14.076 81.1683 13.42 81.2963 12.492L82.3523 12.372L82.4243 12.492Z" fill="white"/>
</svg>
